<?xml version="1.0" encoding="UTF-8" standalone="no"?>
<!-- Created with Inkscape (http://www.inkscape.org/) -->

<svg
   xmlns:dc="http://purl.org/dc/elements/1.1/"
   xmlns:cc="http://creativecommons.org/ns#"
   xmlns:rdf="http://www.w3.org/1999/02/22-rdf-syntax-ns#"
   xmlns:svg="http://www.w3.org/2000/svg"
   xmlns="http://www.w3.org/2000/svg"
   xmlns:sodipodi="http://sodipodi.sourceforge.net/DTD/sodipodi-0.dtd"
   xmlns:inkscape="http://www.inkscape.org/namespaces/inkscape"
   width="24"
   height="24"
   id="svg2985"
   version="1.1"
   inkscape:version="0.48.2 r9819"
   sodipodi:docname="colorSlider.svg">
  <defs
     id="defs2987">
    <filter
       id="filter3016"
       inkscape:label="Inner Shadow"
       inkscape:menu="Shadows and Glows"
       inkscape:menu-tooltip="Adds a colorizable drop shadow inside"
       color-interpolation-filters="sRGB">
      <feGaussianBlur
         id="feGaussianBlur3018"
         stdDeviation="1"
         result="result8" />
      <feOffset
         id="feOffset3020"
         dx="0"
         dy="1"
         result="result11" />
      <feComposite
         id="feComposite3022"
         in2="result11"
         result="result6"
         in="SourceGraphic"
         operator="in" />
      <feFlood
         id="feFlood3024"
         result="result10"
         in="result6"
         flood-opacity="0.5"
         flood-color="rgb(0,0,0)" />
      <feBlend
         id="feBlend3026"
         in2="result10"
         mode="normal"
         in="result6"
         result="result12" />
      <feComposite
         id="feComposite3028"
         in2="SourceGraphic"
         result="result2"
         operator="in" />
    </filter>
  </defs>
  <sodipodi:namedview
     id="base"
     pagecolor="#ffffff"
     bordercolor="#666666"
     borderopacity="1.0"
     inkscape:pageopacity="0.0"
     inkscape:pageshadow="2"
     inkscape:zoom="31.672167"
     inkscape:cx="4.3707618"
     inkscape:cy="10.948246"
     inkscape:current-layer="layer1"
     showgrid="true"
     inkscape:grid-bbox="true"
     inkscape:document-units="px"
     inkscape:window-width="1920"
     inkscape:window-height="1032"
     inkscape:window-x="1280"
     inkscape:window-y="0"
     inkscape:window-maximized="1">
    <inkscape:grid
       type="xygrid"
       id="grid2993"
       empspacing="4"
       visible="true"
       enabled="true"
       snapvisiblegridlinesonly="true" />
  </sodipodi:namedview>
  <metadata
     id="metadata2990">
    <rdf:RDF>
      <cc:Work
         rdf:about="">
        <dc:format>image/svg+xml</dc:format>
        <dc:type
           rdf:resource="http://purl.org/dc/dcmitype/StillImage" />
        <dc:title></dc:title>
      </cc:Work>
    </rdf:RDF>
  </metadata>
  <g
     id="layer1"
     inkscape:label="Layer 1"
     inkscape:groupmode="layer"
     transform="translate(0,-8)">
    <g
       id="g3851"
       transform="translate(0,1)">
      <path
         id="rect3844"
         transform="translate(0,8)"
         d="M 4,4 4,7 13,7 11,5 11,4 4,4 z m 13,0 0,1 -2,2 5,0 0,-3 -3,0 z"
         style="fill:#666666;fill-opacity:1;stroke:none"
         inkscape:connector-curvature="0" />
      <path
         transform="translate(0,8)"
         inkscape:connector-curvature="0"
         id="path3846"
         d="m 14,7 -2,-2 0,-3 4,0 0,3 -2,2"
         style="fill:#666666;fill-opacity:1;stroke:none" />
    </g>
    <g
       id="g3855"
       transform="translate(0,7)">
      <path
         style="fill:#666666;fill-opacity:1;stroke:none"
         d="M 4,4 4,7 13,7 11,5 11,4 4,4 z m 13,0 0,1 -2,2 5,0 0,-3 -3,0 z"
         transform="translate(0,8)"
         id="path3857"
         inkscape:connector-curvature="0" />
      <path
         style="fill:#666666;fill-opacity:1;stroke:none"
         d="m 14,7 -2,-2 0,-3 4,0 0,3 -2,2"
         id="path3859"
         inkscape:connector-curvature="0"
         transform="translate(0,8)" />
    </g>
    <g
       transform="translate(0,13)"
       id="g3861">
      <path
         inkscape:connector-curvature="0"
         id="path3863"
         transform="translate(0,8)"
         d="M 4,4 4,7 13,7 11,5 11,4 4,4 z m 13,0 0,1 -2,2 5,0 0,-3 -3,0 z"
         style="fill:#666666;fill-opacity:1;stroke:none" />
      <path
         transform="translate(0,8)"
         inkscape:connector-curvature="0"
         id="path3865"
         d="m 14,7 -2,-2 0,-3 4,0 0,3 -2,2"
         style="fill:#666666;fill-opacity:1;stroke:none" />
    </g>
  </g>
</svg>
